# xmcd
#
# Track frame offsets:
#	150
#	15667
#	33567
#	49805
#	60562
#	71725
#	84860
#	95317
#	107970
#	119582
#	135070
#	147067
#	158312
#	169557
#	180087
#	190982
#	204722
#	224207
#
# Disc length: 3141 seconds
#
# Revision: 1
# Processed by: cddbd v1.5.2PL0 Copyright (c) Steve Scherf et al.
# Submitted via: audiograbber 1.83.01
#
DISCID=f10c4312
DTITLE=Various Artist - Sony Ladies - Classic Country - Volume 6
DYEAR=1900
DGENRE=Oldies
TTITLE0=Bobbie Cryner - Daddy Laid The Blues On Me
TTITLE1=Shelby Lynne - Things Are Tough All Over
TTITLE2=Tina Rainford - Silver Bird
TTITLE3=Joy White - Little Tears
TTITLE4=Dolly Parton - Dumb Blonde
TTITLE5=Lynn Anderson - Isn't It Always Love
TTITLE6=Calamity Jane - I've Just Seen A Face
TTITLE7=Sweethearts Of The Rodeo - Since I Found You
TTITLE8=Debbie Lori Kaye - Come On Home
TTITLE9=Barbara Fairchild - Baby Doll
TTITLE10=Sue Richards - Feel Free To Go 
TTITLE11=Terri Lane - Daisy May (And Daisy May Not)
TTITLE12=Joni Bishop - Heart Out Of Control
TTITLE13=Sammi Smith - So Long, Charlie Brown, Don't Look For Me Around
TTITLE14=June Stearns - Empty House
TTITLE15=Mary Kay Place - Baby Boy
TTITLE16=Marshall Chapman  - Why Can't I Be Like Other Girls
TTITLE17=Connie Smith - ('Til) I Kissed You
EXTD=
EXTT0=
EXTT1=
EXTT2=
EXTT3=
EXTT4=
EXTT5=
EXTT6=
EXTT7=
EXTT8=
EXTT9=
EXTT10=
EXTT11=
EXTT12=
EXTT13=
EXTT14=
EXTT15=
EXTT16=
EXTT17=
PLAYORDER=
